<svg xmlns="http://www.w3.org/2000/svg" version="1.1" xmlns:xlink="http://www.w3.org/1999/xlink" xmlns:svgjs="http://svgjs.dev/svgjs" width="100%" height="100%" viewBox="0 0 1000 600"><rect width="1000" height="600" x="0" y="0" fill="#2e2e2e"/><g><rect width="333.3333333333333" height="333.3333333333333" rx="13.333333333333334" ry="13.333333333333334" y="254.68385498980948" fill="#31a8ff" transform="matrix(0.5377232176849384,0,0,0.5377232176849382,0,73.4300641772763)" x="232.4615478515625"/><path d="M438.10372762389403 496.3505194715716L365.18705902559526 496.3505194715716Q358.23393384140036 496.3505194715716 355.81205877724256 492.78281104372627Q353.3641420457283 489.2411442832374 353.3641420457283 484.9182275020526L353.3641420457283 484.9182275020526L353.3641420457283 355.36093240328967Q353.3641420457283 346.3505154979285 364.24955900076003 346.3505154979285L364.24955900076003 346.3505154979285Q375.49955929878325 346.3505154979285 375.49955929878325 355.36093240328967L375.49955929878325 355.36093240328967L375.49955929878325 477.4182273033705L438.10372762389403 477.4182273033705Q444.8745611365932 477.4182273033705 444.8745611365932 486.61093588022743L444.8745611365932 486.61093588022743Q445.2391444795847 496.3505194715716 438.10372762389403 496.3505194715716L438.10372762389403 496.3505194715716Z " fill="#2e2e2e" transform="matrix(0.5377232176849384,0,0,0.5377232176849382,0,73.4300641772763)"/><path d="M720.8654231793048 473.9739692622173L659.1370289481765 473.9739692622173Q653.2507856411368 473.9739692622173 651.2005211184601 470.9536871159085Q649.1282107407008 467.95545082468226 649.1282107407008 464.29583888097966L649.1282107407008 464.29583888097966L649.1282107407008 354.61770984531427Q649.1282107407008 346.9898439867534 658.3433781652049 346.9898439867534L658.3433781652049 346.9898439867534Q667.8671875608646 346.9898439867534 667.8671875608646 354.61770984531427L667.8671875608646 354.61770984531427L667.8671875608646 457.9466326172065L720.8654231793048 457.9466326172065Q726.5973455007667 457.9466326172065 726.5973455007667 465.72881946134515L726.5973455007667 465.72881946134515Q726.9059874719223 473.9739692622173 720.8654231793048 473.9739692622173L720.8654231793048 473.9739692622173ZM765.1555460401394 378.27291234888594L790.552371095232 378.27291234888594Q794.6749459956682 378.27291234888594 799.0400253020123 380.01453490040706Q803.4051046083562 381.7561574519282 807.5497253638748 384.44575177199874L807.5497253638748 384.44575177199874L807.3733585232146 384.44575177199874Q811.5179792787333 387.4660339183075 813.7225647869877 392.3161220364676Q815.949196150325 397.14416429954514 815.949196150325 403.4933705633183L815.949196150325 403.4933705633183L815.949196150325 448.57714420712455Q815.949196150325 461.6062445609091 807.3733585232146 467.7790839840219L807.3733585232146 467.7790839840219Q798.9738877367647 473.81964827663944 790.552371095232 473.81964827663944L790.552371095232 473.81964827663944L765.1555460401394 473.81964827663944Q761.0329711397032 473.81964827663944 756.7560752536892 472.386667696274Q752.4571335125929 470.9536871159085 748.3345586121568 467.7790839840219L748.3345586121568 467.7790839840219Q739.7587209850465 461.7605655464869 739.7587209850465 448.57714420712455L739.7587209850465 448.57714420712455L739.7587209850465 403.4933705633183Q739.7587209850465 397.14416429954514 741.9853523483837 392.3161220364676Q744.2119837117208 387.4660339183075 748.3345586121568 384.44575177199874L748.3345586121568 384.44575177199874L748.1802376265791 384.44575177199874Q752.1484915414374 381.7561574519282 756.579708413029 380.01453490040706Q761.0329711397032 378.27291234888594 765.1555460401394 378.27291234888594L765.1555460401394 378.27291234888594ZM768.0215072008702 458.894604385756L787.7084557895837 458.894604385756Q793.5726532415408 458.894604385756 796.041789010786 455.56568026829154Q798.4888789249485 452.2367561508271 798.4888789249485 448.4228232215467L798.4888789249485 448.4228232215467L798.4888789249485 403.66973740397873Q798.4888789249485 399.70148348912045 796.041789010786 396.4386969369037Q793.5726532415408 393.1759103846869 787.7084557895837 393.1759103846869L787.7084557895837 393.1759103846869L768.0215072008702 393.1759103846869Q762.1352638938306 393.1759103846869 759.6881739796679 396.4386969369037Q757.2190382104227 399.70148348912045 757.2190382104227 403.66973740397873L757.2190382104227 403.66973740397873L757.2190382104227 448.4228232215467Q757.2190382104227 452.2367561508271 759.6881739796679 455.56568026829154Q762.1352638938306 458.894604385756 768.0215072008702 458.894604385756L768.0215072008702 458.894604385756ZM880.7199183828445 462.7085373150364L861.5179786059471 462.7085373150364Q857.3733578504284 462.7085373150364 853.0082785440843 461.2755567346709Q848.6431992377402 459.8425761543054 844.5206243373043 457.1529818342348L844.5206243373043 457.1529818342348Q835.944786710194 451.5974263534333 835.944786710194 438.4140050140709L835.944786710194 438.4140050140709L835.944786710194 402.54539879476886Q835.944786710194 395.88755055984 838.2596014938613 391.1256458620101Q840.5523704224461 386.3637411641802 844.5206243373043 383.6521009890271L844.5206243373043 383.6521009890271Q848.6431992377402 381.11682765453435 852.9421409788367 379.68384707416885Q857.2190368648505 378.27291234888594 861.3416117652866 378.27291234888594L861.3416117652866 378.27291234888594L888.0170964151671 378.27291234888594Q891.9853503300253 378.27291234888594 896.2622462160393 380.01453490040706Q900.5611879571356 381.7561574519282 904.1987540457558 384.44575177199874L904.1987540457558 384.44575177199874Q907.8583659894584 387.4660339183075 910.0849973527954 392.38225960171525Q912.3116287161326 397.3205311402055 912.3116287161326 403.4933705633183L912.3116287161326 403.4933705633183L912.3116287161326 470.79936613033067Q912.3116287161326 477.4792602203421 910.151134918043 482.1529814978418Q908.0126869750361 486.82670277534146 904.1987540457558 490.00130590722813L904.1987540457558 490.00130590722813Q900.5611879571356 493.0215880535369 896.3504296363694 494.69707303981033Q892.1396713156032 496.35051217100124 888.0170964151671 496.35051217100124L888.0170964151671 496.35051217100124L861.3416117652866 496.35051217100124Q852.9421409788367 496.35051217100124 844.3663033517264 491.43428648759357L844.3663033517264 491.43428648759357Q839.9130406250522 488.8990131531008 837.928913667623 484.93075923824256Q835.944786710194 480.96250532338433 835.944786710194 475.7155918137384L835.944786710194 475.7155918137384L835.944786710194 473.81964827663944Q835.944786710194 470.6450451447529 838.0170970879533 468.7491016076539Q840.0894074657126 466.83111221547244 844.5206243373043 466.83111221547244L844.5206243373043 466.83111221547244Q853.4051039355702 467.7790839840219 853.4051039355702 473.81964827663944L853.4051039355702 473.81964827663944L853.4051039355702 475.56127082816056Q853.4051039355702 477.3028933796817 855.8742397048154 479.375203757441Q858.3433754740604 481.4475141352003 864.2075729260175 481.4475141352003L864.2075729260175 481.4475141352003L884.0488425003089 481.4475141352003Q889.913039952266 481.4475141352003 892.3821757215112 478.09654416265334Q894.8513114907564 474.76762004518895 894.8513114907564 470.6450451447529L894.8513114907564 470.6450451447529L894.8513114907564 403.66973740397873Q894.8513114907564 399.70148348912045 892.3821757215112 396.4386969369037Q889.913039952266 393.1759103846869 884.0488425003089 393.1759103846869L884.0488425003089 393.1759103846869L864.2075729260175 393.1759103846869Q858.3433754740604 393.1759103846869 855.8742397048154 396.4386969369037Q853.4051039355702 399.70148348912045 853.4051039355702 403.66973740397873L853.4051039355702 403.66973740397873L853.4051039355702 437.1573912743658Q853.4051039355702 441.12564518922403 855.8742397048154 444.54275272701864Q858.3433754740604 447.93781440973066 864.2075729260175 447.93781440973066L864.2075729260175 447.93781440973066L880.7199183828445 447.93781440973066Q886.4297948492238 447.93781440973066 886.4297948492238 455.25703829713586L886.4297948492238 455.25703829713586Q886.4297948492238 458.5859624146003 885.0849976891884 460.63622693727706Q883.7402005291533 462.7085373150364 880.7199183828445 462.7085373150364L880.7199183828445 462.7085373150364ZM1059.2913445514655 470.00571534735906L1024.370710100713 363.3478684580024L989.6043966355383 470.00571534735906L989.6043966355383 469.8513943617812Q988.6564248669888 472.23234671069616 986.9809398807151 473.7314648563093Q985.3275007495242 475.25262885700494 982.9465484006093 475.25262885700494L982.9465484006093 475.25262885700494Q981.6678888058216 475.25262885700494 980.4774126313641 475.01012445109694Q979.2869364569067 474.76762004518895 978.0082768621191 474.4589780740333L978.0082768621191 474.4589780740333L978.1846437027796 474.4589780740333Q969.123797263853 471.59301691330234 971.5047496127681 464.29583888097966L971.5047496127681 464.29583888097966L1007.7040436583084 354.28702201907606Q1008.4976944412799 351.75174868458333 1010.4818213987091 350.0101261330622Q1012.4659483561381 348.26850358154104 1015.1555426762088 347.9378157553029L1015.1555426762088 347.9378157553029Q1017.867182851362 347.47485279856943 1020.4024561858546 347.23234839266144Q1022.9377295203474 346.9898439867534 1024.370710100713 346.9898439867534L1024.370710100713 346.9898439867534Q1025.8036906810785 346.9898439867534 1028.3389640155713 347.23234839266144Q1030.874237350064 347.47485279856943 1033.5638316701345 347.78349476972505L1033.5638316701345 347.78349476972505Q1035.7904630334717 348.11418259596326 1037.9289109764786 350.16444711864Q1040.089404774568 352.2367574963993 1041.1916975286954 354.28702201907606L1041.1916975286954 354.28702201907606Q1050.0761771269613 381.60183646635033 1059.2031611311354 409.29143045002786Q1068.3301451353093 437.00307028878797 1077.2146247335752 464.29583888097966L1077.2146247335752 464.29583888097966Q1079.4412560969124 471.59301691330234 1070.5567764986463 474.4589780740333L1070.5567764986463 474.4589780740333Q1069.2781169038587 474.76762004518895 1068.2640075700617 475.01012445109694Q1067.227852381182 475.25262885700494 1065.9491927863944 475.25262885700494L1065.9491927863944 475.25262885700494Q1063.7225614230572 475.25262885700494 1061.9148013062884 473.7314648563093Q1060.084995334437 472.23234671069616 1059.2913445514655 469.8513943617812L1059.2913445514655 469.8513943617812L1059.2913445514655 470.00571534735906ZM1036.2754718452877 435.7244106940003L1036.2754718452877 435.7244106940003Q1036.2754718452877 440.7949573629858 1032.7040433219152 444.3663858863583Q1029.1326147985428 447.93781440973066 1024.0400222744747 447.93781440973066L1024.0400222744747 447.93781440973066Q1018.9694756054892 447.93781440973066 1015.4862305024469 444.3663858863583Q1011.9809395443222 440.7949573629858 1011.9809395443222 435.7244106940003L1011.9809395443222 435.7244106940003Q1011.9809395443222 430.65386402501474 1015.4862305024469 427.08243550164235Q1018.9694756054892 423.51100697826996 1024.0400222744747 423.51100697826996L1024.0400222744747 423.51100697826996Q1029.1326147985428 423.51100697826996 1032.7040433219152 427.08243550164235Q1036.2754718452877 430.65386402501474 1036.2754718452877 435.7244106940003ZM1107.5497213271583 404.77203015810596L1107.5497213271583 467.16180004171065Q1107.5497213271583 474.76762004518895 1098.81956271447 474.76762004518895L1098.81956271447 474.76762004518895Q1090.089404101782 474.76762004518895 1090.089404101782 467.16180004171065L1090.089404101782 467.16180004171065L1090.089404101782 403.3390495777405Q1090.089404101782 396.8355223283895 1092.1396686244589 392.0736176305596Q1094.211979002218 387.31171293272973 1098.6431958738099 384.29143078642096L1098.6431958738099 384.29143078642096Q1107.0647125153423 378.27291234888594 1115.4862291568747 378.27291234888594L1115.4862291568747 378.27291234888594L1141.0373751975453 378.27291234888594Q1149.1282040128397 378.27291234888594 1157.8583626255277 384.29143078642096L1157.8583626255277 384.29143078642096Q1166.434200252638 390.3319950790385 1166.434200252638 403.3390495777405L1166.434200252638 403.3390495777405L1166.434200252638 467.16180004171065Q1166.434200252638 474.76762004518895 1157.70404163995 474.76762004518895L1157.70404163995 474.76762004518895Q1148.9738830272618 474.76762004518895 1148.9738830272618 467.16180004171065L1148.9738830272618 467.16180004171065L1148.9738830272618 404.77203015810596Q1148.9738830272618 400.64945525766996 1146.438609692769 396.8355223283895L1146.438609692769 396.8355223283895L1146.5929306783469 396.9898433139673Q1144.5206203005876 393.1759103846869 1138.1714140368144 393.1759103846869L1138.1714140368144 393.1759103846869L1118.330144462523 393.1759103846869Q1111.826617213172 393.1759103846869 1109.7543068354128 396.9898433139673L1109.7543068354128 396.9898433139673Q1107.5497213271583 400.31876743143175 1107.5497213271583 404.77203015810596L1107.5497213271583 404.77203015810596ZM1231.6678854418913 473.81964827663944L1210.8786440990505 473.81964827663944Q1205.9624184156426 473.81964827663944 1201.5091556889683 472.47485111660416Q1197.0558929622941 471.1300539565689 1192.9333180618582 468.57273476699356L1192.9333180618582 468.57273476699356L1192.9333180618582 468.7491016076539Q1185.1511312177195 463.81083006916367 1185.1511312177195 450.6494545848838L1185.1511312177195 450.6494545848838L1185.1511312177195 442.86726774074515Q1185.1511312177195 436.36374049139414 1187.4659460013868 431.51365237323404Q1189.7587149299716 426.6856101101565 1193.8812898304077 423.8196489494256L1193.8812898304077 423.8196489494256L1193.7269688448298 423.8196489494256Q1197.695222759688 421.13005462935496 1202.1484854863622 419.76321161423715Q1206.5797023579541 418.41841445420187 1210.7243231134726 418.41841445420187L1210.7243231134726 418.41841445420187L1245.799278549803 418.41841445420187L1245.799278549803 403.66973740397873Q1245.799278549803 399.70148348912045 1243.330142780558 396.4386969369037Q1240.8830528663952 393.1759103846869 1234.9968095593556 393.1759103846869L1234.9968095593556 393.1759103846869L1216.434199579852 393.1759103846869Q1210.3936352872345 393.1759103846869 1208.1008663586497 396.130054965748Q1205.7860515749824 399.0621536917266 1205.7860515749824 403.03040760658484L1205.7860515749824 403.03040760658484L1205.7860515749824 404.28702134629Q1205.7860515749824 412.5542170022446 1196.9015719767165 412.5542170022446L1196.9015719767165 412.5542170022446Q1188.0170923784503 412.5542170022446 1188.0170923784503 404.28702134629L1188.0170923784503 404.28702134629L1188.0170923784503 402.87608662100706Q1188.0170923784503 396.35051351657347 1190.3098613070351 391.9192966449818Q1192.6246760907025 387.4660339183075 1196.5929300055607 384.44575177199874L1196.5929300055607 384.44575177199874L1196.438609019983 384.44575177199874Q1200.561183920419 381.7561574519282 1205.080584212341 380.01453490040706Q1209.5999845042627 378.27291234888594 1213.7225594046988 378.27291234888594L1213.7225594046988 378.27291234888594L1237.8627707200865 378.27291234888594Q1241.8310246349447 378.27291234888594 1246.3504249268667 380.01453490040706Q1250.8698252187885 381.7561574519282 1254.8380791336467 384.44575177199874L1254.8380791336467 384.44575177199874L1254.6837581480688 384.44575177199874Q1258.806333048505 387.4660339183075 1261.0329644118422 392.3161220364676Q1263.2595957751794 397.14416429954514 1263.2595957751794 403.4933705633183L1263.2595957751794 403.4933705633183L1263.2595957751794 467.16180004171065Q1263.2595957751794 474.76762004518895 1254.5294371624911 474.76762004518895L1254.5294371624911 474.76762004518895Q1252.78781461097 474.76762004518895 1251.2666506102744 474.6132990596111Q1249.7675324646611 474.4589780740333 1248.5770562902037 473.7314648563093Q1247.3865801157463 473.02599749366783 1246.6590668980223 471.68120033363255Q1245.9535995353808 470.3364031735972 1245.9535995353808 468.1097718102601L1245.9535995353808 468.1097718102601L1245.799278549803 433.34345834508537L1213.7225594046988 433.34345834508537Q1210.2393143016566 433.34345834508537 1208.3433707645577 434.137109128057Q1206.4253813723763 434.93075991102864 1205.323088618249 436.67238246254976L1205.323088618249 436.67238246254976Q1204.0444290234614 439.3840226377029 1203.4932826463976 440.88314078331604Q1202.942136269334 442.38225892892916 1202.942136269334 444.30024832111064L1202.942136269334 444.30024832111064L1202.942136269334 450.495133599306Q1202.942136269334 454.6177084997421 1205.3892261834965 456.756156442749Q1207.8583619527417 458.894604385756 1213.8989262453592 458.894604385756L1213.8989262453592 458.894604385756L1231.6678854418913 458.894604385756Q1237.5320828938484 458.894604385756 1237.5320828938484 466.368149258739L1237.5320828938484 466.368149258739Q1237.5320828938484 469.5427523906256 1236.1211481685655 471.68120033363255Q1234.6881675881998 473.81964827663944 1231.6678854418913 473.81964827663944L1231.6678854418913 473.81964827663944ZM1301.817796314552 353.8240590623426L1301.817796314552 467.6247629984441Q1301.817796314552 475.0983078714271 1293.0876377018637 475.0983078714271L1293.0876377018637 475.0983078714271Q1284.2031581035978 475.0983078714271 1284.2031581035978 467.6247629984441L1284.2031581035978 467.6247629984441L1284.2031581035978 353.8240590623426Q1284.2031581035978 346.3505141893596 1293.0876377018637 346.3505141893596L1293.0876377018637 346.3505141893596Q1301.817796314552 346.3505141893596 1301.817796314552 353.8240590623426L1301.817796314552 353.8240590623426ZM1337.0691185915427 496.0418701998457L1328.801922935588 496.0418701998457Q1323.2463674547864 496.0418701998457 1322.9377254836309 488.59037118194516L1322.9377254836309 488.59037118194516Q1322.9377254836309 481.1168263089621 1328.801922935588 481.1168263089621L1328.801922935588 481.1168263089621L1335.790458996755 481.1168263089621Q1341.3460144775565 481.1168263089621 1343.0876370290778 477.7879021914977L1343.0876370290778 477.7879021914977L1345.3142683924148 471.92370473954054L1346.1079191753865 469.36638554996523L1315.1555386394923 388.2596847012792L1315.1555386394923 388.41400568685697Q1313.898924899787 384.6221186126591 1315.7066850165559 381.910478437506Q1317.5364909884072 379.2208841174354 1321.3504239176875 377.94222452264773L1321.3504239176875 377.94222452264773Q1324.2163850784184 377.14857373967607 1325.9580076299396 377.14857373967607L1325.9580076299396 377.14857373967607Q1330.5655913421917 377.14857373967607 1331.6678840963189 382.54980823489984L1331.6678840963189 382.54980823489984L1344.2119756382876 413.81083074194976L1354.8380777880745 439.8469855944364L1371.8354320567173 382.85845020605547Q1373.2463667820005 377.14857373967607 1378.4932802916462 377.14857373967607L1378.4932802916462 377.14857373967607Q1379.771939886434 377.14857373967607 1382.6158551920823 377.94222452264773L1382.6158551920823 377.94222452264773Q1386.4297881213627 379.0665631318576 1388.1052731076363 381.60183646635033Q1389.758712238827 384.1371098008431 1388.8107404702776 387.62035490388536L1388.8107404702776 387.62035490388536Q1381.6678834235329 411.91488720485086 1374.28252197088 436.518061476972Q1366.897160518227 461.1212357490931 1359.7543034714824 485.2394012093982L1359.7543034714824 485.2394012093982Q1358.9606526885107 487.0030696160019 1357.3072135573198 488.8108297327706Q1355.6317285710463 490.6406357046219 1352.9421342509756 492.3161206908954Q1350.2304940758224 493.96955982208635 1346.2622401609644 495.005715010966Q1342.293986246106 496.0418701998457 1337.0691185915427 496.0418701998457L1337.0691185915427 496.0418701998457ZM1444.3662952782931 393.1759103846869L1401.2005110266684 393.1759103846869Q1395.4685887052067 393.1759103846869 1395.159946734051 385.7244113667864L1395.159946734051 385.7244113667864Q1395.159946734051 378.27291234888594 1401.2005110266684 378.27291234888594L1401.2005110266684 378.27291234888594L1456.2710570228678 378.27291234888594Q1461.3416036918534 378.27291234888594 1464.2957482729146 379.92635148007685Q1467.2278469988933 381.60183646635033 1467.5364889700488 384.44575177199874L1467.5364889700488 384.44575177199874Q1467.6908099556265 387.00307096157405 1467.4703514048012 389.53834429606684Q1467.2278469988933 392.0736176305596 1466.2798752303436 393.3522772253473L1466.2798752303436 393.3522772253473L1417.5364896428348 458.894604385756L1462.4659423010633 458.894604385756Q1468.1758187674425 458.894604385756 1468.1758187674425 466.368149258739L1468.1758187674425 466.368149258739Q1468.4844607385983 470.16003633293684 1466.897159172655 471.98984230478817Q1465.3098576067116 473.81964827663944 1462.4659423010633 473.81964827663944L1462.4659423010633 473.81964827663944L1405.4774069126822 473.81964827663944Q1395.159946734051 473.81964827663944 1394.3662959510793 467.7790839840219L1394.3662959510793 467.7790839840219Q1393.8812871392631 462.22352850322034 1395.4685887052067 458.7402834001781L1395.4685887052067 458.7402834001781L1444.3662952782931 393.1759103846869ZM1499.128199303337 403.4933705633183L1499.128199303337 448.4228232215467Q1499.128199303337 452.2367561508271 1501.597335072582 455.56568026829154Q1504.0444249867446 458.894604385756 1509.9306682937843 458.894604385756L1509.9306682937843 458.894604385756L1529.7719378680756 458.894604385756Q1535.6361353200327 458.894604385756 1538.105271089278 455.9625056597774Q1540.5523610034404 453.03040693379876 1540.5523610034404 449.2164740045184L1540.5523610034404 449.2164740045184L1540.5523610034404 447.4748514529972Q1540.5523610034404 440.00130658001416 1549.2825196161286 440.00130658001416L1549.2825196161286 440.00130658001416Q1558.0126782288169 440.00130658001416 1558.0126782288169 447.4748514529972L1558.0126782288169 447.4748514529972L1558.0126782288169 449.37079499009616Q1558.0126782288169 456.05068908010753 1555.8742302858097 460.32758496612144Q1553.735782342803 464.60448085213534 1549.4368406017063 467.7790839840219L1549.4368406017063 467.7790839840219Q1541.0373698152564 473.81964827663944 1532.615853173724 473.81964827663944L1532.615853173724 473.81964827663944L1505.9624143789263 473.81964827663944Q1497.5408977373936 473.81964827663944 1489.6043899076772 467.7790839840219L1489.6043899076772 467.7790839840219Q1485.7904569783966 464.60448085213534 1483.7401924557198 459.77643858905776Q1481.6678820779605 454.9263504708977 1481.6678820779605 448.57714420712455L1481.6678820779605 448.57714420712455L1481.6678820779605 403.3390495777405Q1481.6678820779605 390.4863160646163 1489.6043899076772 384.29143078642096L1489.6043899076772 384.29143078642096Q1493.5726438225354 381.4475154807725 1497.7834021433016 379.77203049449906Q1501.9941604640678 378.0965455082256 1505.9624143789263 378.0965455082256L1505.9624143789263 378.0965455082256L1532.615853173724 378.0965455082256Q1536.4297861030045 378.0965455082256 1541.0373698152564 379.6177095089212Q1545.6449535275085 381.11682765453435 1549.613207442367 383.6521009890271L1549.613207442367 383.6521009890271Q1553.4050945165648 386.3637411641802 1555.719909300232 391.1256458620101Q1558.0126782288169 395.88755055984 1558.0126782288169 402.3910778091911L1558.0126782288169 402.3910778091911L1558.0126782288169 423.8196489494256Q1558.0126782288169 427.4792608931282 1555.8742302858097 430.32317619877654Q1553.735782342803 433.1891373595075 1548.0259058764234 433.1891373595075L1548.0259058764234 433.1891373595075L1513.7225553679823 433.1891373595075Q1508.0126789016028 433.1891373595075 1507.7040369304473 425.71559248652454L1507.7040369304473 425.71559248652454Q1507.7040369304473 418.264093468624 1513.7225553679823 418.264093468624L1513.7225553679823 418.264093468624L1540.7066819890183 418.264093468624L1540.5523610034404 403.4933705633183Q1540.5523610034404 399.5251166484601 1538.105271089278 396.28437595132584Q1535.6361353200327 393.0215893991091 1529.7719378680756 393.0215893991091L1529.7719378680756 393.0215893991091L1509.9306682937843 393.0215893991091Q1504.0444249867446 393.0215893991091 1501.597335072582 396.28437595132584Q1499.128199303337 399.5251166484601 1499.128199303337 403.4933705633183L1499.128199303337 403.4933705633183ZM1595.3142650284842 401.5974270262194L1595.3142650284842 467.16180004171065Q1595.3142650284842 474.76762004518895 1586.5841064157962 474.76762004518895L1586.5841064157962 474.76762004518895Q1577.5453058319524 474.76762004518895 1577.5453058319524 467.16180004171065L1577.5453058319524 467.16180004171065L1577.5453058319524 401.44310604064157Q1577.5453058319524 388.41400568685697 1585.3274926760912 383.34345901787145L1585.3274926760912 383.34345901787145Q1593.0876336651472 378.27291234888594 1603.2507728582007 378.27291234888594L1603.2507728582007 378.27291234888594L1621.3504198809708 378.27291234888594Q1627.2146173329281 378.27291234888594 1627.2146173329281 385.7244113667864L1627.2146173329281 385.7244113667864Q1627.5453051591664 393.1759103846869 1621.3504198809708 393.1759103846869L1621.3504198809708 393.1759103846869L1604.5294324529884 393.1759103846869Q1598.8195559866092 393.1759103846869 1597.0558875800054 395.402541748024Q1595.3142650284842 397.6291731113611 1595.3142650284842 401.5974270262194L1595.3142650284842 401.5974270262194Z " fill="#31a8ff" transform="matrix(0.5377232176849384,0,0,0.5377232176849382,0,73.4300641772763)"/></g></svg>